<?xml version="1.0" encoding="UTF-8"?>
<svg id="Lager_1" data-name="Lager 1" xmlns="http://www.w3.org/2000/svg" viewBox="0 0 684.56 681.61">
  <defs>
    <style>
      .cls-1 {
        fill: #0092b6;
      }

      .cls-2 {
        fill: #008aab;
      }

      .cls-3 {
        fill: #26cad3;
      }
    </style>
  </defs>
  <g>
    <g>
      <path class="cls-3" d="M246.08,264.65c20.66-11.61,56.37-19.29,96.96-19.29s76.3,7.68,96.96,19.29c.74.41,1.62-.1,1.63-.95l1.85-163.26c0-27.75-11.26-52.86-29.4-71.04C395.9,11.22,370.76,0,343.04,0c-55.48,0-100.44,44.96-100.44,100.44l1.85,163.26c0,.84.89,1.36,1.63.95Z"/>
      <path class="cls-2" d="M360.46,443.07c-4.6-.07-8.29-3.8-8.29-8.39,0-1.61.48-3.05,1.22-4.34-3.21-2.54-7.29-4.09-11.73-4.09-10.44,0-18.92,8.49-18.92,18.93s8.48,18.92,18.92,18.92,18.93-8.48,18.93-18.92c0-.74-.08-1.42-.13-2.12ZM360.46,443.07c-4.6-.07-8.29-3.8-8.29-8.39,0-1.61.48-3.05,1.22-4.34-3.21-2.54-7.29-4.09-11.73-4.09-10.44,0-18.92,8.49-18.92,18.93s8.48,18.92,18.92,18.92,18.93-8.48,18.93-18.92c0-.74-.08-1.42-.13-2.12ZM360.46,443.07c-4.6-.07-8.29-3.8-8.29-8.39,0-1.61.48-3.05,1.22-4.34-3.21-2.54-7.29-4.09-11.73-4.09-10.44,0-18.92,8.49-18.92,18.93s8.48,18.92,18.92,18.92,18.93-8.48,18.93-18.92c0-.74-.08-1.42-.13-2.12ZM360.46,443.07c-4.6-.07-8.29-3.8-8.29-8.39,0-1.61.48-3.05,1.22-4.34-3.21-2.54-7.29-4.09-11.73-4.09-10.44,0-18.92,8.49-18.92,18.93s8.48,18.92,18.92,18.92,18.93-8.48,18.93-18.92c0-.74-.08-1.42-.13-2.12ZM360.46,443.07c-4.6-.07-8.29-3.8-8.29-8.39,0-1.61.48-3.05,1.22-4.34-3.21-2.54-7.29-4.09-11.73-4.09-10.44,0-18.92,8.49-18.92,18.93s8.48,18.92,18.92,18.92,18.93-8.48,18.93-18.92c0-.74-.08-1.42-.13-2.12ZM360.46,443.07c-4.6-.07-8.29-3.8-8.29-8.39,0-1.61.48-3.05,1.22-4.34-3.21-2.54-7.29-4.09-11.73-4.09-10.44,0-18.92,8.49-18.92,18.93s8.48,18.92,18.92,18.92,18.93-8.48,18.93-18.92c0-.74-.08-1.42-.13-2.12ZM342.93,409.22c-23.79,0-51.89,23.78-51.89,35.06,0,.3.01.59.03.89,1.04,15.34,28.52,35.94,51.85,35.95,23.6.02,51.9-22.95,52.11-35.81v-.14c0-9.8-27.94-35.95-52.11-35.95ZM364.88,441.85c.16,1.09.26,2.17.26,3.34,0,12.94-10.54,23.48-23.49,23.48s-23.52-10.54-23.52-23.48,10.59-23.52,23.52-23.52c5.75,0,11.03,2.1,15.1,5.52,1.16-.57,2.45-.93,3.83-.93,4.62,0,8.38,3.77,8.38,8.42,0,3.05-1.64,5.69-4.09,7.17ZM352.16,434.68c0-1.61.48-3.05,1.22-4.34-3.21-2.54-7.29-4.09-11.73-4.09-10.44,0-18.92,8.49-18.92,18.93s8.48,18.92,18.92,18.92,18.93-8.48,18.93-18.92c0-.74-.08-1.42-.13-2.12-4.6-.07-8.29-3.8-8.29-8.39ZM360.46,443.07c-4.6-.07-8.29-3.8-8.29-8.39,0-1.61.48-3.05,1.22-4.34-3.21-2.54-7.29-4.09-11.73-4.09-10.44,0-18.92,8.49-18.92,18.93s8.48,18.92,18.92,18.92,18.93-8.48,18.93-18.92c0-.74-.08-1.42-.13-2.12ZM360.46,443.07c-4.6-.07-8.29-3.8-8.29-8.39,0-1.61.48-3.05,1.22-4.34-3.21-2.54-7.29-4.09-11.73-4.09-10.44,0-18.92,8.49-18.92,18.93s8.48,18.92,18.92,18.92,18.93-8.48,18.93-18.92c0-.74-.08-1.42-.13-2.12ZM360.46,443.07c-4.6-.07-8.29-3.8-8.29-8.39,0-1.61.48-3.05,1.22-4.34-3.21-2.54-7.29-4.09-11.73-4.09-10.44,0-18.92,8.49-18.92,18.93s8.48,18.92,18.92,18.92,18.93-8.48,18.93-18.92c0-.74-.08-1.42-.13-2.12ZM360.46,443.07c-4.6-.07-8.29-3.8-8.29-8.39,0-1.61.48-3.05,1.22-4.34-3.21-2.54-7.29-4.09-11.73-4.09-10.44,0-18.92,8.49-18.92,18.93s8.48,18.92,18.92,18.92,18.93-8.48,18.93-18.92c0-.74-.08-1.42-.13-2.12Z"/>
      <path class="cls-2" d="M420.08,275.31c-20.46-6.72-47.45-10.79-77.05-10.79s-56.58,4.07-77.01,10.76c-12.78,4.17-21.24,16.29-21.11,29.68l.07,5.52.19,19.25.44,36.26v2.1s.01.65.01.65c.07,7.93,5.37,14.62,12.56,16.87v20.66c0,5.14,2.77,9.67,6.92,12.08-.16,1.9-.26,3.79-.26,5.72,0,39.54,35.02,71.62,78.2,71.62s78.17-32.08,78.17-71.62c0-1.93-.09-3.82-.25-5.72,4.14-2.4,6.92-6.94,6.92-12.08v-20.66c7.23-2.25,12.49-8.94,12.55-16.87v-.68l.48-38.36.2-19.25.07-5.46c.12-13.43-8.32-25.51-21.08-29.68ZM395.05,446.16c.05-.27.05-.57-.01-.85-.21,12.86-28.51,35.83-52.11,35.81-23.34-.01-50.81-20.61-51.85-35.95-.05.33-.07.66-.03.99-.04-.13-.09-.26-.11-.41.04-.19.1-.38.14-.58-.02-.3-.03-.59-.03-.89,0-11.29,28.1-35.06,51.89-35.06s52.11,26.16,52.11,35.95v.14c.04.14.08.3.12.44-.03.14-.07.27-.11.41ZM419.73,412.33c-.56.9-1.8,2.3-3.02,1.73-.42-.19-.73-.55-1.03-.89-2.24-2.5-4.83-4.46-7.64-6.28-3.73-2.4-7.71-4.43-11.79-6.17-8.63-3.69-17.82-6.01-27.11-7.41-18.64-2.89-37.97-2.42-56.55.93-2.82.52-5.62,1.1-8.41,1.77-6.94,1.77-13.78,4.04-20.21,7.26-3.18,1.6-6.27,3.44-9.1,5.59-1.59,1.19-2.81,2.15-4.16,3.6-1.16,1.24-2.48,2.4-3.92.79-.62-.64-1.22-1.31-1.48-2.17-1.12-3.38,6.81-7.46,9.11-8.87,13.79-8.35,30.14-12.33,45.98-14.35,18-2.35,36.47-2.06,54.34,1.22,8.36,1.54,16.65,3.76,24.52,7,6.71,2.75,14.7,6.34,19.81,11.63.62.65,1.25,1.39,1.33,2.32.05.8-.23,1.6-.65,2.32ZM432.68,371.94c-.13,1.03-1.15,2.87-1.8,3.67-.57.7-1.28,1.42-2.19,1.42-.92.02-1.7-.71-2.31-1.45-2.25-2.77-5.92-5.62-9.03-7.32-3.45-1.87-7.01-3.5-10.67-4.95-7.87-3.09-16.1-5.27-24.41-6.87-17.8-3.37-36.15-4.05-54.24-2.77-16.29,1.16-32.84,3.83-48.23,9.58-.57.23-1.19.45-1.77.68-2.97,1.16-5.87,2.51-8.67,4.04-3.45,1.88-7.08,3.92-9.37,7.22-.24.35-.48.72-.83.96-1.28.9-3.39-.38-3.92-1.66,0,0-1.12-1.64-1.12-2.57,0-1.86,7.03-6.46,9.76-7.93,3.82-2.1,7.91-3.95,11.98-5.47,41.04-15.13,106.16-15.17,145.55,4.72,2.25,1.13,4.44,2.45,6.52,3.89,1.6,1.13,5.04,2.48,4.72,4.82Z"/>
      <path class="cls-2" d="M440.42,368.06v.68l.03-.65-.03-.03Z"/>
    </g>
    <path class="cls-3" d="M360.46,443.07c.05.7.13,1.38.13,2.12,0,10.44-8.48,18.92-18.93,18.92s-18.92-8.48-18.92-18.92,8.48-18.93,18.92-18.93c4.44,0,8.52,1.55,11.73,4.09-.74,1.28-1.22,2.72-1.22,4.34,0,4.59,3.69,8.32,8.29,8.39Z"/>
    <path class="cls-3" d="M342.93,409.22c-23.79,0-51.89,23.78-51.89,35.06,0,.3.01.59.03.89,1.04,15.34,28.52,35.94,51.85,35.95,23.6.02,51.9-22.95,52.11-35.81v-.14c0-9.8-27.94-35.95-52.11-35.95ZM364.88,441.85c.16,1.09.26,2.17.26,3.34,0,12.94-10.54,23.48-23.49,23.48s-23.52-10.54-23.52-23.48,10.59-23.52,23.52-23.52c5.75,0,11.03,2.1,15.1,5.52,1.16-.57,2.45-.93,3.83-.93,4.62,0,8.38,3.77,8.38,8.42,0,3.05-1.64,5.69-4.09,7.17Z"/>
    <path class="cls-1" d="M360.59,445.19c0,10.44-8.48,18.92-18.93,18.92s-18.92-8.48-18.92-18.92,8.48-18.93,18.92-18.93c4.44,0,8.52,1.55,11.73,4.09-.74,1.28-1.22,2.72-1.22,4.34,0,4.59,3.69,8.32,8.29,8.39.05.7.13,1.38.13,2.12Z"/>
  </g>
  <g>
    <path class="cls-2" d="M19.71,681.61c-3.42,0-6.96-.36-10.6-1.08-3.64-.72-6.68-1.52-9.11-2.4v-16.23c2.32.33,4.86.64,7.62.91,2.76.28,5.3.41,7.62.41,3.09,0,5.68-.47,7.78-1.41,2.1-.94,3.73-2.43,4.89-4.47,1.16-2.04,1.74-4.89,1.74-8.53v-90.42h20.53v93.4c0,6.85-1.08,12.48-3.23,16.89-2.15,4.42-5.47,7.68-9.94,9.77-4.47,2.1-10.24,3.15-17.31,3.15Z"/>
    <path class="cls-2" d="M62.62,680.62l39.74-122.22h25.83l39.75,122.22h-21.36l-9.44-28.98h-44.22l-9.27,28.98h-21.03ZM97.72,633.26h34.45l-17.22-57.3-17.22,57.3Z"/>
    <path class="cls-2" d="M179.7,680.62l14.08-122.22h19.87l29.64,97.87,29.48-97.87h19.87l14.41,122.22h-19.87l-11.26-96.05,3.31.33-26.5,95.72h-19.21l-26.83-95.72,3.48-.17-10.76,95.88h-19.71Z"/>
    <path class="cls-2" d="M326.42,680.62v-122.22h49.68c4.53,0,8.8.53,12.84,1.57,4.03,1.05,7.62,2.95,10.76,5.71,3.15,2.76,5.63,6.6,7.45,11.51,1.82,4.91,2.73,11.29,2.73,19.13,0,6.07-.61,11.12-1.82,15.15-1.22,4.03-2.82,7.32-4.8,9.85-1.99,2.54-4.22,4.5-6.71,5.88-2.48,1.38-4.94,2.51-7.37,3.39l23.52,50.01h-20.7l-21.2-47.03h-5.38c-2.04,0-4.17-.03-6.38-.08-2.21-.06-4.36-.11-6.46-.17-2.1-.06-4.03-.08-5.8-.08v47.36h-20.37ZM346.79,617.19h25.83c2.43,0,4.64-.3,6.63-.91,1.99-.61,3.75-1.68,5.3-3.23,1.55-1.54,2.73-3.64,3.56-6.29.83-2.65,1.24-6.07,1.24-10.27s-.41-7.42-1.24-10.02c-.83-2.59-2.02-4.58-3.56-5.96-1.55-1.38-3.34-2.34-5.38-2.9-2.04-.55-4.22-.83-6.54-.83h-25.83v40.41Z"/>
    <path class="cls-3" d="M455.76,681.28c-2.76,0-5.55-.25-8.36-.75-2.82-.5-5.47-1.49-7.95-2.98-2.48-1.49-4.5-3.75-6.04-6.79-1.55-3.04-2.32-7.09-2.32-12.17v-76.18c0-4.53.66-8.28,1.99-11.26,1.32-2.98,3.09-5.35,5.3-7.12,2.21-1.76,4.66-3.04,7.37-3.81,2.7-.77,5.44-1.16,8.2-1.16,6.29.11,12.28.22,17.97.33,5.68.11,11.2.25,16.56.41,5.35.17,10.57.36,15.65.58v7.45h-48.19c-4.64,0-8.34,1.24-11.09,3.73-2.76,2.48-4.14,6.49-4.14,12.01v32.29l56.47.83v7.12l-56.47.83v32.13c0,4.53.8,7.89,2.4,10.1,1.6,2.21,3.67,3.67,6.21,4.39,2.54.72,5.13,1.08,7.78,1.08h47.03v7.45c-5.08.22-10.35.41-15.82.58-5.47.17-10.9.33-16.31.5-5.41.17-10.82.3-16.23.41Z"/>
    <path class="cls-3" d="M555.16,680.62v-41.4l-39.25-80.15h10.1l34.12,70.55,34.11-70.55h9.94l-39.41,80.15v41.4h-9.61Z"/>
    <path class="cls-3" d="M636.2,681.28c-2.76,0-5.55-.25-8.36-.75-2.82-.5-5.47-1.49-7.95-2.98-2.48-1.49-4.5-3.75-6.04-6.79-1.55-3.04-2.32-7.09-2.32-12.17v-76.18c0-4.53.66-8.28,1.99-11.26,1.32-2.98,3.09-5.35,5.3-7.12,2.21-1.76,4.66-3.04,7.37-3.81,2.7-.77,5.44-1.16,8.2-1.16,6.29.11,12.28.22,17.97.33,5.68.11,11.2.25,16.56.41,5.35.17,10.57.36,15.65.58v7.45h-48.19c-4.64,0-8.34,1.24-11.09,3.73-2.76,2.48-4.14,6.49-4.14,12.01v32.29l56.47.83v7.12l-56.47.83v32.13c0,4.53.8,7.89,2.4,10.1,1.6,2.21,3.67,3.67,6.21,4.39,2.54.72,5.13,1.08,7.78,1.08h47.03v7.45c-5.08.22-10.35.41-15.82.58-5.47.17-10.9.33-16.31.5-5.41.17-10.82.3-16.23.41Z"/>
  </g>
</svg>